<svg xmlns="http://www.w3.org/2000/svg" width="249" height="47" xmlns:xlink="http://www.w3.org/1999/xlink">
  <use fill="#000203" xlink:href="#a" transform="translate(7 6.96)"/>
  <use fill="#005992" xlink:href="#b"/>
  <defs>
    <path id="a" fill-rule="evenodd" d="M50.2 23.3l.04-2.5c1.02.52 2.16.9 3.33.9 1.2 0 2.4-.5 2.5-1.7.12-1.1-1.33-2.22-2.25-3.03-1.1-1.02-2.53-2.33-2.37-4.06.2-2.7 2.7-3.6 4.9-3.6 1 0 2.1.2 3.1.4V12c-.8-.34-1.7-.65-2.6-.65-.9 0-2.35.4-2.48 1.62-.1 1.15 1.33 2.23 2.25 3.07 1.17 1.02 2.53 2.3 2.37 4.07-.3 2.8-3 3.8-5.2 3.8-1.3 0-2.5-.2-3.7-.5zm12.65.28c.55-3.44 1.17-8.16 1.57-12h-.7c-1.28 0-2.3.02-3.5.08l.28-2.17h11.3l-.27 2.2c-1.2-.1-2.22-.2-3.5-.2h-.7c-.57 3.8-1.13 8.5-1.47 12h-3zm15.1-1.9c-2.75 0-4.38-2.2-4-5.14.4-3.14 2.36-5.16 5.28-5.16 2.78 0 4.4 2.2 4 5.16-.4 3.13-2.33 5.15-5.3 5.15zm-.3 2.15c-4.24 0-7.23-2.67-6.64-7.3.7-4.87 4-7.3 8.5-7.3 4.3 0 7.3 2.68 6.7 7.3-.6 4.88-3.9 7.3-8.5 7.3zm8.55-.25c.68-4.1 1.4-10 1.8-14.1h3.03c-.55 3.46-1.17 8.14-1.57 12.02H91c1.67 0 3.12-.03 4.78-.12l-.37 2.2h-9.2zm10.26 0c.68-4.1 1.4-10 1.78-14.1h3.06c-.56 3.46-1.18 8.14-1.58 12.02h1.54c1.67 0 3.12-.03 4.78-.12l-.37 2.2h-9.2zm10.26 0c.67-4.1 1.45-10 1.78-14.1h9.7l-.3 2.2c-1.17-.08-2.25-.1-3.48-.1h-3.27l-.46 3.8h2.1c1.4 0 2.5 0 3.7-.02l-.3 2.1h-6l-.5 4.04h2.06c1.67 0 3.12-.03 4.8-.15l-.35 2.23h-9.67zm18.54 0c.84-4.1 1.82-10 2.34-14.1h3.92c.46 3.52 1.32 6.9 1.9 10.63 1.52-3.7 3.27-7.1 4.72-10.6h3.95c-.6 4.1-1.2 10-1.5 14.1H138c.44-3.2.93-7.7 1.27-11.6l-5.1 11.6h-2.66c-.4-2.9-1-6.1-2-11.6-.6 4-1.3 8.5-1.7 11.6h-2.4zm23.36-7.14l2.62-4.87 1.2 4.87h-3.82zm-1.05 2.08l-2.7 5.06h-3.28c1.9-3.04 6.6-11.05 8.2-14.1h3.5c.7 3.05 2.8 11.06 3.7 14.1h-3.2c-.3-1.52-.8-3.7-1.2-5.06h-5.2zm20.6 4.94c-1.16.2-2.36.37-3.56.37-4.3 0-7.2-2.58-6.6-7.3.6-4.84 4.1-7.3 8.6-7.3 1.1 0 2.3.14 3.4.4l-.1 2.3c-1-.33-2.04-.58-3.15-.58-3 0-5.3 1.9-5.7 5.2-.4 3.2 1.33 5.14 4.26 5.14 1.2 0 2.4-.3 3.6-.7l-.57 2.4zm1.37.12c.67-4.1 1.44-10 1.78-14.1h3.05c-.27 1.7-.52 3.64-.8 5.7h6.84c.3-2.06.5-4 .7-5.7h3.1c-.6 4.1-1.4 10-1.8 14.1h-3c.3-1.86.6-4.06.9-6.33h-6.8l-.7 6.33h-3.03zm15.22 0c.67-4.1 1.44-10 1.78-14.1h3.08c-.6 4.1-1.38 10-1.78 14.1h-3.1zm5.02 0c.68-4.1 1.44-10 1.78-14.1h3.6c1.77 3.58 3.43 7.03 5.37 10.9.52-3.63.98-7.78 1.3-10.9h2.7c-.64 4.1-1.4 10-1.78 14.1h-3.67c-1.48-3.1-3.45-6.83-5.3-10.67-.52 3.6-1 7.7-1.3 10.7h-2.7zm14.9 0c.7-4.1 1.46-10 1.8-14.1h9.7l-.3 2.2c-1.18-.08-2.26-.1-3.5-.1h-3.25l-.47 3.8h2.2c1.44 0 2.5 0 3.72-.02l-.28 2.1h-5.9l-.54 4.04h2.07c1.66 0 3.1-.03 4.77-.15l-.34 2.23h-9.67zm11.78 0c.67-4.1 1.4-10 1.78-14.1h5.83c2.46 0 4.53.9 4.2 3.74-.32 2.32-1.95 3.47-4.08 3.84l2.7 6.52h-3.2c-.6-2.2-1.8-5.27-2.8-7.76.3.06.7.1 1.1.1 1.6 0 3-.84 3.2-2.46.2-1.46-.94-1.9-2.24-1.9h-2.38c-.57 3.86-1.16 8.58-1.5 12.02h-2.88zm15.86 0c.28-1.7.6-3.78.87-5.93-1.3-2.82-2.5-5.52-3.8-8.16h3.2c.6 1.9 1.5 3.7 2.2 5.7 0 .1 0 .1.1 0 1.2-2 2.6-3.8 3.8-5.7h3.3c-2.1 2.7-4 5.4-6.1 8.4-.2 2-.5 4-.6 5.6h-3zM.18 20.22h14.18v4.42c.38 2.16 3.9 1.4 3.9-.18v-6.02H3.06C1.6 18.12.16 17 0 15.5.52 6.88 7.67 0 16.35 0c7.73 0 14.22 5.4 15.9 12.7H18.27V8.95c0-2.18-3.8-2.46-4.05.06v5.6h15.4c2.25.3 2.8 1.7 2.93 3.5-.68 8.4-7.67 15-16.2 15-7.8 0-14.47-5.5-16.17-12.8z"/>
    <path id="b" fill-rule="evenodd" d="M23.5 0c4.9 0 9.37 1.5 13.12 4.16 1.84 1.3 2.18 2.5.8 4.1l-2.04 1.9c-3.15-2.84-7.5-4.7-12.06-4.7-4.55 0-8.94 1.86-12.08 4.7L9.2 8.26c-1.37-1.6-1.03-2.8.78-4.1C13.76 1.5 18.53 0 23.5 0zm0 47c4.9 0 9.37-1.6 13.12-4.22 1.84-1.27 2.18-2.52.8-4.05l-2.04-1.9c-3.15 2.74-7.5 4.68-12.06 4.68-4.55 0-8.94-1.9-12.08-4.6L9.2 38.8c-1.37 1.52-1.03 2.77.78 4.04 3.78 2.6 8.55 4.2 13.52 4.2zm23.14-23.33c0 4.97-1.6 9.5-4.2 13.26-1.27 1.9-2.43 2.22-3.98.75l-2-2.08c2.8-3.1 4.7-7.45 4.7-12.1 0-4.6-1.9-9-4.7-12.08l2-2.2c1.55-1.33 2.7-1 4 .87 2.6 3.7 4.18 8.6 4.18 13.5zM0 23.67c0 4.97 1.56 9.5 4.17 13.26 1.28 1.9 2.44 2.22 4 .75l2-2.08c-2.8-3.1-4.72-7.45-4.72-12.1 0-4.6 1.92-9 4.73-12.08l-2-2.2c-1.57-1.33-2.73-1-4 .87C1.55 13.8 0 18.7 0 23.6z"/>
  </defs>
</svg>